<?xml version="1.0" encoding="utf-8"?>
<!-- Generator: Adobe Illustrator 22.1.0, SVG Export Plug-In . SVG Version: 6.00 Build 0)  -->
<svg version="1.1" id="Camada_1" xmlns="http://www.w3.org/2000/svg" xmlns:xlink="http://www.w3.org/1999/xlink" x="0px" y="0px"
	 viewBox="0 0 481.9 198.4" style="enable-background:new 0 0 481.9 198.4;" xml:space="preserve">
<style type="text/css">
	.st0{fill:#34434E;}
</style>
<title>7Prancheta 1</title>
<path class="st0" d="M269.3,43.2h-8.1V149h8.1V43.2z M326.2,77c-8.2,0.1-16.4,1.3-24.3,3.7l1.7,5.8c7.3-2.4,15-3.6,22.7-3.6
	c8.3,0,13.8,4.7,13.8,11.6v10.1c-4.2-1-8.5-1.5-12.9-1.5c-20.3,0.3-36.1,9.3-36.1,25.1c0,14.2,12.7,20.9,25.8,20.9
	c9.4,0.2,18.6-3.2,25.4-9.7c2.3,4.7,7.3,7.6,14,7.6v-5.9c-4.7,0-7.9-3-7.9-7V95C348.5,84.1,339.7,76.9,326.2,77 M327.3,108.6
	c4.3,0.2,8.6,0.7,12.8,1.6v23.4c-5.8,6.2-13.9,9.7-22.4,9.5c-8.4,0-16.9-5.9-16.9-15.3C300.9,116.3,311.9,108.7,327.3,108.6
	 M467.6,79h-8.3L443,140.3c-0.3,0.9-1.1,1.5-2,1.4c-0.9,0-1.7-0.5-1.9-1.4L420,79h-8l-16.2,61.4c-0.2,0.8-0.9,1.4-1.8,1.5
	c-0.9,0-1.8-0.6-2.1-1.5L372.6,79h-8.4l22.1,65c1.3,3.1,4.4,5.1,7.7,5c3.7,0,6.9-1.9,7.6-5L416,87.7h0.3l17.1,56.4
	c0.8,2.9,3.9,5,7.5,5s6.9-2.1,7.9-5.1L467.6,79z"/>
<path class="st0" d="M240.4,138c0,6.1-4.9,11-11,11s-11-4.9-11-11s4.9-11,11-11S240.4,131.9,240.4,138L240.4,138"/>
<path class="st0" d="M52.7,10.8c-19.5,0-32.5,10.8-32.5,26.7v7.9H12l0.1,14.2h8.1v54.9h21.4V59.6h10.9V45.3H41.7V35
	c0-6.4,4.4-10.8,11.1-10.8V10.8z M206.2,43.2c-10.1,0-21,2.2-27.2,5.7c-5.3-3.4-13.4-5.7-20.6-5.7c-10.4,0-20.9,2.1-26.4,5.3
	c-4.3-1.9-10.9-3.2-16.7-3.2v13.3c4.7,0,7.9,3,7.9,7.7v48.1h21.7V65.1c0.1-2.4-0.4-4.8-1.4-7c3.9-1.6,8.2-2.5,12.4-2.5
	c9,0,14.9,7.9,14.9,19.6v39.3h21.7V75.9c-0.1-5.8-1.4-11.5-4-16.7c4.7-2.4,9.9-3.6,15.2-3.6c9,0,14.9,7.9,14.9,19.6v39.3h21.7V75.9
	C240.4,56.2,226.7,43.2,206.2,43.2"/>
<path class="st0" d="M94.2,41.2c-24.9,0-41.5,14.6-41.5,36.6s16.6,36.6,41.5,36.6c5.8,0,12.9-1.4,17.4-3.6l-8.2-12
	c-2.8,1.4-5.9,2.2-9.1,2.4c-11.8,0-19.5-9.4-19.5-23.4s7.7-23.3,19.5-23.3c3.5,0.2,7,1,10.1,2.6l7.6-12.7
	C107.7,42.6,100.7,41.2,94.2,41.2"/>
<path class="st0" d="M22.7,162.7c-1,0-1.3,0.7-1.3,2.1v5.4h6.3v0.6h-6.3v9.4h-0.8v-15.4c0-1.9,0.5-2.8,1.8-2.8h5.8v0.6H22.7z"/>
<path class="st0" d="M41.1,170.6v7.7c0,0.7,0.6,1.3,1.3,1.2c0,0,0.1,0,0.1,0v0.6c-0.9,0.1-1.7-0.4-2-1.3c-1.2,1.1-2.8,1.7-4.5,1.6
	c-2,0-4.3-1-4.3-3.6c0-2.9,2.7-4.5,6-4.5c0.9,0,1.8,0.1,2.7,0.3v-2.1c0-1.3-1.1-2.2-2.7-2.2c-1.3,0-2.6,0.2-3.9,0.6l-0.1-0.7
	c1.3-0.4,2.6-0.5,4-0.6C39.7,167.8,41.1,168.9,41.1,170.6z M32.6,176.8c0.1,1.8,1.7,3.2,3.4,3.1c1.6,0.1,3.2-0.6,4.4-1.7v-4.8
	c-0.9-0.2-1.8-0.3-2.7-0.3C34.8,173.1,32.6,174.6,32.6,176.8L32.6,176.8z"/>
<path class="st0" d="M53.3,168.4c-1.9,0-3.1,1.1-3.1,2.8v9h-0.7v-12.1h0.6v1.3h0.1c0.7-1,1.9-1.7,3.2-1.6L53.3,168.4z"/>
<path class="st0" d="M59.9,164.7v-3h0.8v3H59.9z M60,180.2v-12.1h0.7v12.1H60z"/>
<path class="st0" d="M77.2,170.6v7.7c0,0.7,0.6,1.3,1.3,1.2c0,0,0.1,0,0.1,0v0.6c-0.9,0.1-1.7-0.4-2-1.3c-1.2,1.1-2.8,1.7-4.5,1.7
	c-2,0-4.3-1-4.3-3.6c0-2.9,2.7-4.5,6-4.5c0.9,0,1.8,0.1,2.7,0.3v-2.2c0-1.3-1.1-2.2-2.7-2.2c-1.3,0-2.6,0.2-3.9,0.6l-0.1-0.7
	c1.3-0.4,2.6-0.5,4-0.6C75.8,167.8,77.2,168.9,77.2,170.6z M68.6,176.8c0.1,1.8,1.7,3.2,3.4,3.1c1.6,0.1,3.2-0.6,4.4-1.7v-4.8
	c-0.9-0.2-1.8-0.3-2.7-0.3C70.8,173.1,68.6,174.6,68.6,176.8L68.6,176.8z"/>
<path class="st0" d="M84.7,180.2c0,1.6-0.7,2.7-1.9,2.7v-0.4c0.7,0,1.2-0.9,1.2-2.3h-0.1v-3h0.8V180.2z"/>
<path class="st0" d="M111.7,163.2l-0.3,0.5c-1.4-0.9-3.1-1.3-4.8-1.4c-4.3,0-7.9,3.5-7.9,8.8s3.2,8.9,7.6,8.9c1.8,0,3.5-0.6,4.9-1.6
	l0.4,0.5c-1.5,1.2-3.4,1.8-5.3,1.8c-4.7,0-8.3-3.8-8.3-9.5s3.9-9.4,8.5-9.4C108.4,161.7,110.1,162.2,111.7,163.2z"/>
<path class="st0" d="M128.3,174.2h-9.9c0,3.4,2,5.7,4.8,5.7l0,0c1.3,0,2.5-0.2,3.8-0.5l0.1,0.6c-1.3,0.3-2.6,0.5-3.9,0.5l0,0
	c-3.5,0-5.5-2.6-5.5-6.8c0-3.3,2.2-6,5.3-6C126.4,167.8,128.3,170.4,128.3,174.2z M118.3,173.6h9.1c0-2.4-1.7-5.3-4.6-5.3
	S118.3,171.2,118.3,173.6L118.3,173.6z"/>
<path class="st0" d="M144.7,172.6v7.6H144v-7.6c0-2.9-1.2-4.2-3.8-4.2c-1.5,0-2.9,0.4-4.2,1c0.1,0.5,0.2,1,0.2,1.5v9.3h-0.7v-9.8
	c0.1-0.8-0.5-1.6-1.3-1.7c0,0-0.1,0-0.1,0v-0.6c0.6,0,1.3,0.3,1.7,0.7c1.4-0.7,2.8-1.1,4.4-1.1C143.3,167.8,144.7,169.3,144.7,172.6
	z"/>
<path class="st0" d="M160.8,177.9c-0.1,0.8,0.4,1.5,1.2,1.6c0.1,0,0.1,0,0.2,0v0.6c-0.6,0.1-1.3-0.2-1.7-0.7c-1,0.7-2.3,1.1-3.5,1.1
	c-2.5,0-5.6-1.7-5.6-6.4c0-3.6,2.1-6.4,5.8-6.4c1,0,2,0.2,2.8,0.7v-6.7h0.7L160.8,177.9z M152.1,174.1c0,3.7,2.2,5.8,4.9,5.8
	c1.1,0,2.3-0.4,3.2-1.1c-0.1-0.4-0.2-0.7-0.2-1.1v-8.6c-0.9-0.5-1.8-0.8-2.8-0.8C154.5,168.4,152.1,170.5,152.1,174.1L152.1,174.1z"
	/>
<path class="st0" d="M177.3,170.6v7.7c0,0.7,0.6,1.3,1.3,1.2c0,0,0,0,0.1,0v0.6c-0.9,0.1-1.7-0.4-2-1.3c-1.2,1.1-2.8,1.7-4.5,1.6
	c-2,0-4.3-1-4.3-3.6c0-2.9,2.7-4.5,6-4.5c0.9,0,1.8,0.1,2.7,0.3v-2.1c0-1.3-1.1-2.2-2.7-2.2c-1.3,0-2.6,0.2-3.9,0.6l-0.1-0.7
	c1.3-0.4,2.6-0.5,4-0.6C175.9,167.8,177.3,168.9,177.3,170.6z M168.8,176.8c0.1,1.8,1.7,3.2,3.5,3.1c1.6,0.1,3.2-0.6,4.4-1.7v-4.8
	c-0.9-0.2-1.8-0.3-2.7-0.3C171,173.1,168.8,174.6,168.8,176.8L168.8,176.8z M176.9,162.3c0.1,1.1-0.7,2.1-1.9,2.3
	c-0.1,0-0.2,0-0.2,0c-1.6,0-1.8-1.9-3.2-1.9c-0.8,0-1.3,0.8-1.3,1.9h-0.5c0-1.5,0.7-2.5,1.9-2.5c1.7,0,2.2,1.9,3.2,1.9
	c0.8,0,1.5-0.6,1.6-1.5c0-0.1,0-0.1,0-0.2H176.9z"/>
<path class="st0" d="M196.3,174.1c0,3.9-2.4,6.4-5.9,6.4s-5.9-2.6-5.9-6.4s2.4-6.4,5.9-6.4S196.3,170.3,196.3,174.1z M185.2,174.1
	c0,3.5,2.1,5.8,5.2,5.8s5.2-2.3,5.2-5.8s-2.1-5.7-5.2-5.7S185.2,170.7,185.2,174.1z"/>
<path class="st0" d="M219.5,180.4c-0.7-0.5-1.3-1.1-1.9-1.6c-1.1,1.1-2.6,1.6-4.1,1.6c-2.8,0-4.8-1.4-4.8-3.5c0-1.9,1.7-3,3.4-3.9
	c-0.7-0.9-1.1-1.9-1.2-3.1c0.1-1.4,1.3-2.4,2.6-2.3c1.2,0.1,2.2,1.1,2.3,2.3c0,1.5-1.5,2.3-3,3.2c1.4,1.8,3,3.5,4.7,5
	c1-1.3,1.5-2.8,1.4-4.4h0.5c0.1,1.7-0.5,3.4-1.6,4.7c0.6,0.5,1.2,1,1.9,1.6L219.5,180.4z M213.4,180c1.4,0,2.8-0.5,3.8-1.5
	c-1.8-1.5-3.4-3.2-4.9-5.1c-1.6,0.9-3.1,1.8-3.1,3.5C209.2,178.7,210.9,180,213.4,180z M212.5,172.8c1.5-0.8,2.8-1.6,2.8-2.8
	c0.2-1.1-0.5-2.1-1.6-2.3c-1.1-0.2-2.1,0.5-2.3,1.6c0,0.2,0,0.5,0,0.7C211.5,171,211.9,172,212.5,172.8L212.5,172.8z"/>
<path class="st0" d="M246,162.8c-0.3,0-0.8,0.8-1.2,1.9l-4.7,15.4h-0.7l-4.7-15.4c-0.4-1.2-0.8-1.9-1.2-1.9l-1.5,17.3h-0.7l1.6-18.1
	h0.4c0.8,0,1.6,1.1,2.1,2.6l4.4,14.4h0l4.4-14.4c0.5-1.6,1.3-2.6,2.1-2.6h0.4l1.6,18.1h-0.7L246,162.8z"/>
<path class="st0" d="M263.5,170.6v7.7c0,0.7,0.6,1.3,1.3,1.2c0,0,0.1,0,0.1,0v0.6c-0.9,0.1-1.7-0.4-2-1.3c-1.2,1.1-2.8,1.7-4.5,1.6
	c-2,0-4.3-1-4.3-3.6c0-2.9,2.7-4.5,6-4.5c0.9,0,1.8,0.1,2.7,0.3v-2.1c0-1.3-1.1-2.2-2.7-2.2c-1.3,0-2.6,0.2-3.9,0.6l-0.1-0.7
	c1.3-0.4,2.6-0.5,4-0.6C262.1,167.8,263.5,168.9,263.5,170.6z M255,176.9c0.1,1.8,1.7,3.2,3.5,3.1c1.6,0.1,3.2-0.6,4.4-1.7v-4.8
	c-0.9-0.2-1.8-0.3-2.7-0.3C257.2,173.1,255,174.6,255,176.9z"/>
<path class="st0" d="M271.8,164.7v-3h0.8v3H271.8z M271.9,180.2v-12.1h0.7v12.1H271.9z"/>
<path class="st0" d="M289.1,170.6v7.7c0,0.7,0.6,1.3,1.3,1.3c0,0,0.1,0,0.1,0v0.6c-0.9,0.1-1.7-0.4-2-1.3c-1.2,1.1-2.8,1.7-4.5,1.6
	c-2,0-4.3-1-4.3-3.6c0-2.9,2.7-4.5,6-4.5c0.9,0,1.8,0.1,2.7,0.3v-2.2c0-1.3-1.1-2.2-2.7-2.2c-1.3,0-2.6,0.2-3.9,0.6l-0.1-0.7
	c1.3-0.4,2.6-0.5,4-0.6C287.7,167.8,289.1,168.9,289.1,170.6z M280.5,176.8c0.1,1.8,1.7,3.2,3.5,3.1c1.6,0.1,3.2-0.6,4.4-1.7v-4.8
	c-0.9-0.2-1.8-0.3-2.7-0.3C282.7,173.1,280.5,174.6,280.5,176.8L280.5,176.8z"/>
<path class="st0" d="M317.1,180.2l-2-5.6h-8.9l-1.8,5.6h-0.7l5.3-16.3c0.5-1.4,1.2-2.2,2.1-2.2h0.2l6.5,18.5H317.1z M310.8,162.4
	c-0.4,0-0.9,0.6-1.2,1.7l-3.3,9.9h8.5L310.8,162.4z"/>
<path class="st0" d="M332.6,177.9c-0.1,0.8,0.4,1.5,1.2,1.6c0.1,0,0.1,0,0.2,0v0.6c-0.6,0.1-1.3-0.2-1.7-0.7c-1,0.7-2.2,1.1-3.5,1.1
	c-2.5,0-5.6-1.7-5.6-6.4c0-3.6,2.1-6.4,5.8-6.4c1,0,2,0.2,2.8,0.7v-6.7h0.7L332.6,177.9z M324,174.1c0,3.7,2.2,5.8,4.9,5.8
	c1.1,0,2.3-0.4,3.2-1.1c-0.1-0.4-0.1-0.7-0.2-1.1v-8.6c-0.9-0.5-1.8-0.8-2.8-0.8C326.3,168.4,324,170.5,324,174.1z"/>
<path class="st0" d="M345.6,179.8c-0.1,0.4-0.5,0.7-1,0.7c-0.4,0-0.8-0.3-1-0.7l-4.8-11.7h0.7l4.7,11.5c0.1,0.2,0.2,0.3,0.4,0.3
	c0.2,0,0.3-0.1,0.3-0.3l4.1-11.5h0.7L345.6,179.8z"/>
<path class="st0" d="M366.5,174.1c0,3.9-2.4,6.4-5.9,6.4s-5.9-2.6-5.9-6.4s2.4-6.4,5.9-6.4S366.5,170.3,366.5,174.1z M355.4,174.1
	c0,3.5,2.1,5.8,5.2,5.8s5.2-2.3,5.2-5.8s-2.1-5.7-5.2-5.7S355.4,170.7,355.4,174.1z"/>
<path class="st0" d="M382.7,169c0.4-0.7,1.1-1,1.9-0.9v0.6c-0.7-0.1-1.3,0.4-1.4,1.1c0,0.1,0,0.1,0,0.2v11c0,3.5-3.3,5.2-6.8,5.2
	c-0.6,0-1.3-0.1-1.9-0.1l0.1-0.7c0.6,0.1,1.2,0.1,1.8,0.1c3.4,0,6-1.7,6-4.5v-1.6c-1.4,0.5-2.9,0.7-4.4,0.7c-3.4,0-5.5-2.6-5.5-6.3
	c0-4.6,3.5-6.1,6.2-6.1C380.1,167.7,381.5,168.1,382.7,169z M373.2,173.8c0,3.4,1.8,5.7,4.8,5.7c1.5,0,3-0.2,4.4-0.7v-8.4
	c0-1.2-1.5-2.1-3.9-2.1c-2.8-0.1-5.2,2.1-5.3,5C373.2,173.5,373.2,173.7,373.2,173.8z"/>
<path class="st0" d="M399.7,170.6v7.7c0,0.7,0.6,1.3,1.3,1.2c0,0,0,0,0.1,0v0.6c-0.9,0.1-1.7-0.4-2-1.3c-1.2,1.1-2.8,1.7-4.5,1.6
	c-2,0-4.3-1-4.3-3.6c0-2.9,2.7-4.5,6-4.5c0.9,0,1.8,0.1,2.7,0.3v-2.1c0-1.3-1.1-2.2-2.7-2.2c-1.3,0-2.6,0.2-3.9,0.6l-0.2-0.7
	c1.3-0.4,2.6-0.5,4-0.6C398.3,167.8,399.7,168.9,399.7,170.6z M391.1,176.8c0.1,1.8,1.7,3.2,3.5,3.1c1.6,0.1,3.2-0.6,4.4-1.7v-4.8
	c-0.9-0.2-1.8-0.3-2.7-0.3C393.3,173.1,391.1,174.6,391.1,176.8L391.1,176.8z"/>
<path class="st0" d="M416.2,177.9c-0.1,0.8,0.4,1.5,1.2,1.6c0.1,0,0.1,0,0.2,0v0.6c-0.6,0.1-1.3-0.2-1.7-0.7c-1,0.7-2.2,1.1-3.5,1.1
	c-2.5,0-5.6-1.7-5.6-6.4c0-3.6,2.1-6.4,5.8-6.4c1,0,2,0.2,2.8,0.7v-6.7h0.7L416.2,177.9z M407.6,174.1c0,3.7,2.2,5.8,4.9,5.8
	c1.1,0,2.3-0.4,3.2-1.1c-0.1-0.4-0.2-0.7-0.2-1.1v-8.6c-0.9-0.5-1.8-0.8-2.8-0.8C409.9,168.4,407.6,170.5,407.6,174.1L407.6,174.1z"
	/>
<path class="st0" d="M435.2,174.1c0,3.9-2.4,6.4-5.9,6.4s-5.9-2.6-5.9-6.4s2.4-6.4,5.9-6.4S435.2,170.3,435.2,174.1z M424.1,174.1
	c0,3.5,2.1,5.8,5.2,5.8s5.2-2.3,5.2-5.8s-2.1-5.7-5.2-5.7S424.1,170.7,424.1,174.1z"/>
<path class="st0" d="M449.3,169.6l-0.5,0.5c-0.9-1-2.2-1.6-3.5-1.6c-2,0-3.2,0.9-3.2,2.3c0,3.6,7.4,2.5,7.4,6.4
	c0,2.1-1.7,3.5-4.2,3.5c-1.8,0-3.5-0.9-4.7-2.4l0.5-0.4c1,1.4,2.6,2.2,4.3,2.1c2.1,0,3.4-1.2,3.4-2.9c0-3.3-7.4-2.2-7.4-6.4
	c0-1.7,1.6-2.9,3.9-2.9C446.8,167.9,448.3,168.5,449.3,169.6z"/>
</svg>
