<?xml version="1.0" encoding="utf-8"?>
<!-- Generator: Adobe Illustrator 22.1.0, SVG Export Plug-In . SVG Version: 6.00 Build 0)  -->
<svg version="1.1" id="Camada_1" xmlns="http://www.w3.org/2000/svg" xmlns:xlink="http://www.w3.org/1999/xlink" x="0px" y="0px"
	 viewBox="0 0 618.9 105.4" style="enable-background:new 0 0 618.9 105.4;" xml:space="preserve">
<style type="text/css">
	.st0{fill:#FFFFFF;}
</style>
<g>
	<g>
		<g>
			<g>
				<g>
					<path class="st0" d="M191.5,18c-1.7,0-2.4,1.2-2.4,3.8v8.9h11.1v2h-11.1v17h-2.8V22c0-4,1.4-6,4.3-6h10.6v2H191.5z"/>
					<path class="st0" d="M221.1,32.5v13c0,1.4,1.1,2.4,2.6,2.4v1.9c-2.2,0-3.9-0.9-4.7-2.5c-2.4,2.2-5,3.2-8.5,3.2
						c-4.3,0-8.6-2.2-8.6-6.9c0-5.3,5.2-8.2,12-8.3c1.4,0,2.8,0.2,4.3,0.5v-3.3c0-2.3-1.8-3.9-4.6-3.9c-2.3,0-5.2,0.4-7.6,1.2
						l-0.5-1.9c2.6-0.8,5.7-1.2,8.1-1.2C218.2,26.5,221.1,28.9,221.1,32.5z M205.2,43.4c0,3.1,2.8,5.1,5.6,5.1
						c2.6,0,5.4-0.9,7.5-3.2v-7.8c-1.5-0.3-2.9-0.5-4.3-0.5C208.9,37.1,205.2,39.6,205.2,43.4z"/>
					<path class="st0" d="M239.4,28.5c-3.7,0-6.1,2.2-6.1,5.6v15.6h-2.7V27.1h2.1v2.6h0.1c1-2,3.9-3.2,6.6-3.2V28.5z"/>
					<path class="st0" d="M245.6,21.5v-6.2h2.9v6.2H245.6z M245.7,49.7V27.2h2.7v22.6H245.7z"/>
					<path class="st0" d="M267.3,26.5c4.4,0,7.4,2.4,7.4,6v13c0,1.4,1.1,2.4,2.6,2.4v1.9c-2.2,0-3.9-0.9-4.7-2.5
						c-2.4,2.2-5,3.2-8.5,3.2c-4.3,0-8.6-2.2-8.6-6.9c0-5.3,5.2-8.2,12-8.3c1.4,0,2.8,0.2,4.3,0.5v-3.3c0-2.3-1.8-3.9-4.6-3.9
						c-2.3,0-5.2,0.4-7.6,1.2l-0.5-1.9C261.9,26.9,264.9,26.5,267.3,26.5L267.3,26.5z M258.8,43.4c0,3.1,2.8,5.1,5.6,5.1
						c2.6,0,5.4-0.9,7.5-3.2v-7.8c-1.5-0.3-2.9-0.5-4.3-0.5C262.5,37.1,258.8,39.6,258.8,43.4z"/>
					<path class="st0" d="M284.2,49.7c0,3.5-1.9,5.9-4.8,5.9v-1.4c1.5,0,2.5-1.8,2.5-4.4h-0.6v-6.2h2.9L284.2,49.7z"/>
					<path class="st0" d="M325,18l-1.3,1.8c-2.6-1.7-5.4-2.5-8.3-2.5c-7.5,0-13.6,6.2-13.6,15.5c0,9.1,5.6,15.6,13.2,15.6
						c3,0,6.1-0.9,8.5-2.9l1.4,1.7c-2.8,2.2-6.3,3.2-9.9,3.2c-9.2,0-15.9-7.1-15.9-17.6c0-10.6,7.2-17.5,16.3-17.5
						C318.9,15.3,322.2,16.3,325,18z"/>
					<path class="st0" d="M351.1,39.1h-18.2c0.1,5.6,3.4,9.3,8,9.3h0c2.2,0,4.2-0.2,7.3-1.1l0.5,2c-3.3,0.8-5.4,1-7.8,1h0
						c-6.8,0-11-4.9-11-12.6c0-6.3,4.3-11.4,10.5-11.4C347.3,26.5,351.1,31.5,351.1,39.1z M340.4,28.5c-4.5,0-7.5,4.5-7.5,8.7H348
						C348,32.9,345.2,28.5,340.4,28.5L340.4,28.5z"/>
					<path class="st0" d="M367.7,26.5c6.2,0,9.4,3.2,9.4,9.4v13.8h-2.8V35.9c0-5-2.1-7.5-6.5-7.5c-2.4,0-5.2,0.7-7,1.6
						c0.3,0.7,0.4,1.7,0.4,2.7v17.1h-2.8V32c0-1.8-1.1-3-2.6-3v-1.9c1.4,0,2.8,0.5,3.7,1.3C361.7,27.3,365,26.5,367.7,26.5
						L367.7,26.5z"/>
					<path class="st0" d="M402.3,44.9c0,1.8,1.1,2.9,2.6,2.9v1.9c-1.8,0-3.1-0.5-3.8-1.3c-1.7,1.1-4.2,2-6.4,2
						c-5.5,0-11.3-3.5-11.3-12c0-6.8,4.4-11.9,11.5-11.9c1.5,0,3.1,0.3,4.6,1V15.3h2.8V44.9z M386.2,38.4c0,6.3,3.8,10.1,8.5,10.1
						c1.8,0,3.7-0.7,5.1-1.7c-0.2-0.6-0.2-1.3-0.3-2.1V29.6c-1.5-0.8-3.1-1.2-4.6-1.2C390.1,28.4,386.2,32.2,386.2,38.4z"/>
					<path class="st0" d="M428.6,32.5v13c0,1.4,1.1,2.4,2.6,2.4v1.9c-2.2,0-3.9-0.9-4.7-2.5c-2.4,2.2-5,3.2-8.5,3.2
						c-4.3,0-8.6-2.2-8.6-6.9c0-5.3,5.2-8.2,12-8.3c1.4,0,2.8,0.2,4.3,0.5v-3.3c0-2.3-1.8-3.9-4.6-3.9c-2.3,0-5.2,0.4-7.6,1.2
						l-0.5-1.9c2.6-0.8,5.7-1.2,8.1-1.2C425.7,26.5,428.6,28.9,428.6,32.5z M412.7,43.4c0,3.1,2.8,5.1,5.6,5.1
						c2.6,0,5.4-0.9,7.5-3.2v-7.8c-1.5-0.3-2.9-0.5-4.3-0.5C416.4,37.1,412.7,39.6,412.7,43.4z M427.6,16.7c0,2.9-1.8,4.9-4.5,4.9
						c-3.2,0-3.3-3.4-5.7-3.4c-1.4,0-2.2,1.4-2.2,3.4h-2c0-3.1,1.7-5.3,4.1-5.3c3.4,0,4,3.4,5.7,3.4c1.6,0,2.6-1.2,2.6-3H427.6z"/>
					<path class="st0" d="M459,38.4c0,7.2-4.6,12-11.6,12c-6.9,0-11.6-4.8-11.6-12c0-7.1,4.6-11.9,11.6-11.9
						C454.4,26.5,459,31.3,459,38.4z M438.7,38.4c0,6,3.5,10.1,8.8,10.1c5.3,0,8.8-4,8.8-10.1c0-5.9-3.5-9.9-8.8-9.9
						C442.2,28.5,438.7,32.5,438.7,38.4z"/>
					<path class="st0" d="M491,50.2c-1.1-0.8-2.2-1.7-3.2-2.5c-1.8,1.6-4.2,2.5-7.1,2.5c-5.1,0-8.5-2.5-8.5-6.2c0-3.4,2.8-5,5.7-6.5
						c-1.3-1.9-2-3.5-2-4.9c0-2.6,1.9-4.3,4.7-4.3v1.2c-1.8,0-3,1.2-3,3.1c0,1.1,0.6,2.6,1.6,4.2c2.3-1.1,4.3-2.3,4.3-4.2
						c0-1.9-1.2-3.1-2.9-3.1v-1.2c2.8,0,4.7,1.7,4.7,4.3c0,2.7-2.5,4.1-5.2,5.4c1.7,2.3,4.3,4.9,7.5,7.7c1.3-1.7,2.1-4.1,2.1-6.8
						h1.7c0,3.2-0.9,5.9-2.6,7.8c1,0.8,2,1.6,3,2.4L491,50.2z M486.7,46.7c-3.3-2.9-6-5.6-7.9-8c-2.5,1.3-4.7,2.7-4.7,5.2
						c0,3,2.7,5,6.7,5C483.2,48.9,485.2,48.1,486.7,46.7z"/>
					<path class="st0" d="M532.7,18.8c-0.6,0-1.5,1.4-2.1,3.4l-7.7,27.5h-2.7l-7.7-27.5c-0.6-2-1.4-3.4-2.1-3.4l-2.5,30.9h-2.7
						L508,16h1.4c2.3,0,4.5,2.5,5.4,6.1l6.7,24h0.1l6.7-24c0.9-3.7,3-6.1,5.4-6.1h1.4l2.9,33.7h-2.7L532.7,18.8z"/>
					<path class="st0" d="M562,32.5v13c0,1.4,1.1,2.4,2.6,2.4v1.9c-2.2,0-3.9-0.9-4.7-2.5c-2.4,2.2-5,3.2-8.5,3.2
						c-4.3,0-8.6-2.2-8.6-6.9c0-5.3,5.2-8.2,12-8.3c1.4,0,2.8,0.2,4.3,0.5v-3.3c0-2.3-1.8-3.9-4.6-3.9c-2.3,0-5.2,0.4-7.6,1.2
						l-0.5-1.9c2.6-0.8,5.7-1.2,8.1-1.2C559.1,26.5,562,28.9,562,32.5z M546.2,43.4c0,3.1,2.8,5.1,5.6,5.1c2.6,0,5.4-0.9,7.5-3.2
						v-7.8c-1.5-0.3-2.9-0.5-4.3-0.5C549.9,37.1,546.2,39.6,546.2,43.4z"/>
					<path class="st0" d="M571.4,21.5v-6.2h2.9v6.2H571.4z M571.5,49.7V27.2h2.7v22.6H571.5z"/>
					<path class="st0" d="M593.1,26.5c4.4,0,7.4,2.4,7.4,6v13c0,1.4,1.1,2.4,2.6,2.4v1.9c-2.2,0-3.9-0.9-4.7-2.5
						c-2.4,2.2-5,3.2-8.5,3.2c-4.3,0-8.6-2.2-8.6-6.9c0-5.3,5.2-8.2,12-8.3c1.4,0,2.8,0.2,4.3,0.5v-3.3c0-2.3-1.8-3.9-4.6-3.9
						c-2.3,0-5.2,0.4-7.6,1.2l-0.5-1.9C587.6,26.9,590.7,26.5,593.1,26.5L593.1,26.5z M584.6,43.4c0,3.1,2.8,5.1,5.6,5.1
						c2.6,0,5.4-0.9,7.5-3.2v-7.8c-1.5-0.3-2.9-0.5-4.3-0.5C588.3,37.1,584.6,39.6,584.6,43.4z"/>
				</g>
			</g>
		</g>
	</g>
	<g>
		<path class="st0" d="M201.1,85l-2.5-7.1h-11.4L185,85H184l6.7-20.7c0.6-1.8,1.6-2.8,2.7-2.8h0.3L202,85H201.1z M193.2,62.5
			c-0.5,0-1.1,0.8-1.5,2.2l-4.1,12.6h10.9L193.2,62.5z"/>
		<path class="st0" d="M217.1,82.2c0,1.3,0.7,2.1,1.8,2.1V85c-1.1,0-1.8-0.4-2.1-0.9c-1.2,0.8-2.9,1.4-4.4,1.4
			c-3.2,0-7.2-2.1-7.2-8.2c0-4.5,2.7-8.1,7.4-8.1c1.2,0,2.4,0.3,3.6,0.8v-8.5h0.9V82.2z M206.1,77.3c0,4.7,2.8,7.4,6.2,7.4
			c1.4,0,2.9-0.6,4-1.4c-0.1-0.4-0.2-0.9-0.2-1.4V71c-1.2-0.7-2.4-1-3.6-1C209.1,70,206.1,72.7,206.1,77.3z"/>
		<path class="st0" d="M229.8,84.6c-0.2,0.5-0.7,0.9-1.3,0.9c-0.6,0-1.1-0.4-1.3-0.9l-6.1-14.9h0.9l5.9,14.7
			c0.1,0.2,0.3,0.3,0.5,0.3c0.2,0,0.4-0.1,0.4-0.3l5.2-14.7h0.9L229.8,84.6z"/>
		<path class="st0" d="M252.7,77.3c0,4.9-3,8.2-7.5,8.2c-4.5,0-7.5-3.3-7.5-8.2c0-4.8,3-8.1,7.5-8.1
			C249.7,69.3,252.7,72.5,252.7,77.3z M238.6,77.3c0,4.4,2.6,7.4,6.6,7.4c3.9,0,6.6-2.9,6.6-7.4c0-4.3-2.6-7.2-6.6-7.2
			C241.2,70.1,238.6,73,238.6,77.3z"/>
		<path class="st0" d="M269.4,70.9c0.3-0.7,1.2-1.2,2.4-1.2v0.8c-1.1,0-1.8,0.7-1.8,1.7v14c0,4.4-4.2,6.6-8.7,6.6
			c-0.8,0-1.7-0.1-2.4-0.2l0.2-0.8c0.8,0.1,1.6,0.2,2.3,0.2c4.3,0,7.7-2.2,7.7-5.8v-2.1c-1.8,0.6-3.8,0.8-5.6,0.8c-4.4,0-7-3.3-7-8
			c0-5.8,4.5-7.7,7.9-7.7C266.4,69.3,268.4,69.9,269.4,70.9z M257.4,77c0,4.4,2.3,7.2,6.1,7.2c1.7,0,3.8-0.3,5.6-0.8V72.7
			c0-1.6-1.9-2.7-4.9-2.7C261.3,70.1,257.4,71.9,257.4,77z"/>
		<path class="st0" d="M287.3,72.9v9.8c0,0.9,0.7,1.6,1.8,1.6V85c-1.3,0-2.1-0.6-2.5-1.6c-1.8,1.5-3.3,2.1-5.7,2.1
			c-2.6,0-5.5-1.3-5.5-4.6c0-3.7,3.4-5.7,7.6-5.8c1.1,0,2.2,0.1,3.4,0.4v-2.7c0-1.7-1.4-2.8-3.4-2.8c-1.5,0-3.4,0.2-5,0.7l-0.2-0.8
			c1.8-0.5,3.6-0.7,5.1-0.7C285.5,69.3,287.3,70.7,287.3,72.9z M276.4,80.8c0,2.4,2.3,3.9,4.4,3.9c2,0,4-0.6,5.5-2.2v-6.1
			c-1.2-0.3-2.3-0.4-3.4-0.4C279.2,76,276.4,77.9,276.4,80.8z"/>
		<path class="st0" d="M304.6,82.2c0,1.3,0.7,2.1,1.8,2.1V85c-1.1,0-1.8-0.4-2.1-0.9c-1.2,0.8-2.9,1.4-4.4,1.4
			c-3.2,0-7.2-2.1-7.2-8.2c0-4.5,2.7-8.1,7.4-8.1c1.2,0,2.4,0.3,3.6,0.8v-8.5h0.9V82.2z M293.6,77.3c0,4.7,2.8,7.4,6.2,7.4
			c1.4,0,2.9-0.6,4-1.4c-0.1-0.4-0.2-0.9-0.2-1.4V71c-1.2-0.7-2.4-1-3.6-1C296.6,70,293.6,72.7,293.6,77.3z"/>
		<path class="st0" d="M324.9,77.3c0,4.9-3,8.2-7.5,8.2c-4.5,0-7.5-3.3-7.5-8.2c0-4.8,3-8.1,7.5-8.1
			C321.9,69.3,324.9,72.5,324.9,77.3z M310.8,77.3c0,4.4,2.6,7.4,6.6,7.4c3.9,0,6.6-2.9,6.6-7.4c0-4.3-2.6-7.2-6.6-7.2
			C313.5,70.1,310.8,73,310.8,77.3z"/>
		<path class="st0" d="M339.1,71.5l-0.6,0.6c-1.4-1.4-3-2.1-4.5-2.1c-2.5,0-4.1,1.2-4.1,2.9c0,4.6,9.4,3.2,9.4,8.1
			c0,2.7-2.2,4.4-5.4,4.4c-2.1,0-4.4-1.1-5.9-3l0.6-0.5c1.4,1.9,3.4,2.7,5.4,2.7c2.7,0,4.3-1.5,4.3-3.7c0-4.1-9.4-2.8-9.4-8.1
			c0-2.2,2-3.7,5-3.7C335.8,69.3,337.7,70.1,339.1,71.5z"/>
	</g>
	<g>
		<path class="st0" d="M36.9,62.4c0.2,0.8,1,1.2,1.8,1c0.5-0.1,0.9-1,0.9-1c1.1-6.6,11.7-17,16-20.3c-0.1,0.7-0.2,1.4-0.3,2.2
			c-0.1,1-0.3,2-0.4,2.8c-0.1,0.8,0.3,1.6,1.1,1.9c0.8,0.3,1.6,0.1,2.1-0.5c1.4-1.7,4-5.1,6-7.8c1.5-2,3-4,3.3-4.3
			c0.9-0.9,8.3-4.7,26.4-12.3l-2.6,7.7c-0.4,0.8-0.1,1.4,0.3,1.8c1.1,1.1,2.1,0.6,10.5-4.4c4-2.4,9-5.3,10.8-5.8
			c31.2-6.5,44.7,2.8,48,5.6c-7.7,9.1-21.6,17.7-39.2,24.4c-1.6,0.6-3.4,0.7-5.1,0.2c-4.5-1.2-12.4-3.8-16.6-5.4c-1-0.4-2,0-2.5,0.9
			c-0.5,0.9-0.4,1.9,0.4,2.6l12.5,9c-6.9,3.3-22.7,9.4-29.3,9.7c-2.5-0.7-6.9-2.6-10.4-4.2c-2.7-1.2-5-2.3-6.2-2.6
			c-0.7-0.2-1.5,0.1-1.9,0.7c-0.4,0.6-0.4,1.5,0.1,2c0.4,0.4,0.8,1,1.4,1.7c2.3,2.8,4.5,5.4,6.1,7c-4.5,1.3-19.1,3.3-25.3,0
			l-0.1-0.1c-0.1,0-0.3-0.1-0.4-0.1c-0.8,0-1.5,0.6-1.5,1.4c0,0.5,0.2,0.9,0.6,1.1l0.1,0c2.8,1.5,7.4,2,12.1,2c8.2,0,17-1.7,18-3.3
			c0.5-0.7,0.3-1.6-0.4-2.2c-1-0.8-3.6-3.7-5.6-6c0.6,0.3,1.2,0.6,1.9,0.8c3.9,1.8,8.3,3.8,11,4.5l0.2,0l0.2,0
			c7.7-0.2,25.4-7.4,31.2-10.2c0.3-0.2,1.4-0.7,1.6-1.8c0.2-1.1-0.8-2-1.2-2.3l-8.7-6.2c4.1,1.4,8.9,3,12.1,3.8
			c2.3,0.6,4.6,0.5,6.7-0.3c10.9-4.1,30.7-13,41.2-26.2l0.7-0.9l-0.7-0.9c-0.5-0.6-13.3-15.3-51.6-7.3c-2.1,0.6-6.9,3.4-11.5,6.1
			c-2,1.1-4.2,2.5-5.9,3.4c0,0,2.1-5.7,2.2-6.7c0.1-0.4-0.2-1.7-1.1-2.3c-0.9-0.6-2-0.1-2.4,0L93,21.5c-16.8,7.1-26,11.4-27.5,13
			C65.2,34.8,64.3,36,62,39c-1.2,1.6-2.6,3.4-3.8,5c0.2-1.7,0.4-3.3,0.5-3.9c0.1-0.9-0.5-1.6-1.4-1.7c-3-0.3-18.9,14.8-20.4,23.5
			C36.8,62,36.8,62.3,36.9,62.4z"/>
		<path class="st0" d="M144.4,30.8c-11.8,1.3-23.4,4.1-34.7,7.6l-4.3,1.3c-1.4,0.4-2.8,1-4.2,1.5c-2.8,1-5.6,1.9-8.4,3.1
			c-2.8,1.1-5.5,2.2-8.3,3.3l-8.1,3.7c-1.4,0.6-2.7,1.3-4,2l-4,2l-4,2c-1.3,0.7-2.6,1.5-3.9,2.2c-2.6,1.5-5.2,2.9-7.8,4.3l-7.7,4.5
			l-3.9,2.2c-1.3,0.7-2.5,1.6-3.8,2.4c-2.5,1.6-5.1,3.2-7.6,4.7l-1.9,1.2L26,80l-3.7,2.5c-2.5,1.6-5,3.3-7.6,4.9L14.4,87
			c2.2-2.1,4.5-4.1,6.8-6.1l3.5-3c0.6-0.5,1.2-1,1.7-1.5l1.8-1.4c4.9-3.6,9.7-7.4,14.9-10.5c2.6-1.6,5.1-3.2,7.7-4.8
			c2.7-1.4,5.3-2.8,8-4.2c1.3-0.7,2.7-1.4,4-2l4.1-1.9l4.1-1.9c1.4-0.6,2.7-1.3,4.1-1.8l8.3-3.4c2.8-1.1,5.6-2,8.5-3.1
			c2.8-1.1,5.7-1.9,8.5-2.8c1.4-0.4,2.9-0.9,4.3-1.3l4.3-1.2c11.6-3,23.3-5.3,35.2-6L144.4,30.8z"/>
	</g>
</g>
</svg>
