<?xml version="1.0" encoding="utf-8"?>
<!-- Generator: Adobe Illustrator 22.1.0, SVG Export Plug-In . SVG Version: 6.00 Build 0)  -->
<svg version="1.1" id="Camada_1" xmlns="http://www.w3.org/2000/svg" xmlns:xlink="http://www.w3.org/1999/xlink" x="0px" y="0px"
	 viewBox="0 0 618.9 254.2" style="enable-background:new 0 0 618.9 254.2;" xml:space="preserve">
<style type="text/css">
	.st0{fill:#fff;}
</style>
<g>
	<g>
		<g>
			<g>
				<g>
					<path class="st0" d="M27.6,130.5c-2.4,0-3.4,1.7-3.3,5.3v12.5h15.5v2.8H24.4v23.7h-4v-38.7c0-5.5,2-8.4,6-8.4h14.7v2.8H27.6z"
						/>
					<path class="st0" d="M68.9,150.7v18.1c0,1.9,1.5,3.3,3.6,3.3v2.7c-3.1,0-5.4-1.3-6.5-3.5c-3.4,3-7,4.4-11.8,4.4
						c-6,0-12-3.1-12-9.7c0-7.4,7.3-11.5,16.7-11.6c1.9,0,4,0.2,6,0.7v-4.7c0-3.2-2.6-5.4-6.4-5.4c-3.3,0-7.2,0.6-10.5,1.7l-0.7-2.7
						c3.7-1.1,7.9-1.7,11.3-1.7C64.8,142.3,68.9,145.7,68.9,150.7z M46.8,165.9c0,4.4,3.9,7.1,7.8,7.1c3.7,0,7.5-1.3,10.4-4.4v-10.8
						c-2-0.4-4-0.7-6-0.8C52,157.1,46.8,160.6,46.8,165.9z"/>
					<path class="st0" d="M94.4,145.2c-5.1,0-8.5,3.1-8.5,7.8v21.8h-3.8v-31.5h3v3.6h0.1c1.4-2.8,5.5-4.5,9.2-4.5V145.2z"/>
					<path class="st0" d="M103.2,135.3v-8.6h4v8.6H103.2z M103.3,174.8v-31.5h3.7v31.5H103.3z"/>
					<path class="st0" d="M133.4,142.3c6.2,0,10.3,3.3,10.3,8.4v18.1c0,1.9,1.5,3.3,3.7,3.3v2.7c-3.1,0-5.4-1.3-6.5-3.5
						c-3.4,3-7,4.4-11.8,4.4c-6,0-12-3.1-12-9.7c0-7.4,7.3-11.5,16.7-11.6c1.9,0,4,0.2,6,0.7v-4.7c0-3.2-2.6-5.4-6.4-5.4
						c-3.3,0-7.2,0.6-10.5,1.7l-0.7-2.7C125.8,142.9,130.1,142.3,133.4,142.3L133.4,142.3z M121.6,165.9c0,4.4,3.9,7.1,7.8,7.1
						c3.7,0,7.5-1.3,10.4-4.4v-10.8c-2-0.4-4-0.7-6-0.8C126.7,157.1,121.6,160.6,121.6,165.9z"/>
					<path class="st0" d="M156.9,174.8c0,4.9-2.6,8.2-6.6,8.2v-2c2.1,0,3.5-2.5,3.5-6.2H153v-8.6h4L156.9,174.8z"/>
					<path class="st0" d="M214,130.5l-1.8,2.5c-3.6-2.3-7.6-3.4-11.6-3.4c-10.5,0-19,8.7-19,21.6c0,12.7,7.8,21.7,18.4,21.7
						c4.3,0,8.5-1.3,11.8-4l2,2.3c-4,3-8.8,4.5-13.8,4.5c-12.9,0-22.2-9.8-22.2-24.6c0-14.8,10-24.4,22.8-24.4
						C205.4,126.8,209.9,128,214,130.5z"/>
					<path class="st0" d="M250.3,159.9h-25.4c0.2,7.8,4.7,13,11.1,13h0.1c3.1,0,5.8-0.3,10.1-1.5l0.7,2.8c-4.6,1.1-7.5,1.4-10.8,1.4
						H236c-9.5,0-15.3-6.8-15.3-17.5c0-8.8,6-15.9,14.7-15.9C245,142.3,250.3,149.3,250.3,159.9z M235.4,145.1
						c-6.3,0-10.5,6.3-10.5,12.2H246C246,151.3,242,145.1,235.4,145.1L235.4,145.1z"/>
					<path class="st0" d="M273.5,142.3c8.6,0,13,4.5,13,13.2v19.3h-3.9v-19.3c0-7-3-10.5-9.1-10.5c-3.3,0-7.2,1-9.7,2.3
						c0.4,1,0.5,2.4,0.5,3.7v23.9h-3.9v-24.7c0-2.5-1.5-4.2-3.6-4.2v-2.6c2,0,4,0.7,5.2,1.8C265.1,143.4,269.8,142.3,273.5,142.3
						L273.5,142.3z"/>
					<path class="st0" d="M321.7,168c0,2.5,1.5,4.1,3.6,4.1v2.7c-2.5,0-4.3-0.7-5.3-1.8c-2.4,1.6-5.9,2.7-9,2.7
						c-7.7,0-15.8-4.9-15.8-16.8c0-9.5,6.1-16.6,16.1-16.6c2.1,0,4.3,0.4,6.4,1.4v-17h3.9V168z M299.3,158.9
						c0,8.8,5.2,14.1,11.8,14.1c2.5,0,5.2-1,7.1-2.4c-0.2-0.8-0.3-1.8-0.4-2.9v-21c-2.1-1.1-4.3-1.7-6.4-1.7
						C304.7,145,299.3,150.2,299.3,158.9z"/>
					<path class="st0" d="M358.5,150.7v18.1c0,1.9,1.5,3.3,3.6,3.3v2.7c-3.1,0-5.4-1.3-6.5-3.5c-3.4,3-7,4.4-11.8,4.4
						c-6,0-12-3.1-12-9.7c0-7.4,7.3-11.5,16.7-11.6c1.9,0,4,0.2,6,0.7v-4.7c0-3.2-2.6-5.4-6.4-5.4c-3.3,0-7.2,0.6-10.5,1.7l-0.7-2.7
						c3.7-1.1,7.9-1.7,11.3-1.7C354.3,142.3,358.5,145.7,358.5,150.7z M336.3,165.9c0,4.4,3.9,7.1,7.8,7.1c3.7,0,7.5-1.3,10.4-4.4
						v-10.8c-2-0.4-4-0.7-6-0.8C341.5,157.1,336.3,160.6,336.3,165.9z M357.1,128.6c0,4.1-2.5,6.9-6.2,6.9c-4.5,0-4.7-4.7-8-4.7
						c-1.9,0-3.1,1.9-3.1,4.7h-2.8c0-4.4,2.3-7.3,5.8-7.3c4.7,0,5.5,4.7,8,4.7c2.2,0,3.6-1.7,3.6-4.2H357.1z"/>
					<path class="st0" d="M400.9,159c0,10.1-6.5,16.8-16.1,16.8c-9.7,0-16.1-6.7-16.1-16.8c0-9.9,6.5-16.6,16.1-16.6
						C394.4,142.3,400.9,149.1,400.9,159z M372.5,159c0,8.4,4.9,14,12.3,14c7.3,0,12.2-5.6,12.2-14c0-8.2-4.9-13.8-12.2-13.8
						C377.4,145.1,372.5,150.7,372.5,159z"/>
					<path class="st0" d="M445.5,175.4c-1.5-1.2-3-2.4-4.4-3.5c-2.5,2.2-5.9,3.5-9.9,3.5c-7,0-11.8-3.5-11.8-8.7c0-4.7,3.9-7,7.9-9
						c-1.8-2.6-2.7-4.9-2.7-6.8c0-3.6,2.6-6,6.6-6v1.7c-2.5,0-4.1,1.7-4.1,4.3c0,1.6,0.8,3.6,2.3,5.8c3.2-1.6,6-3.2,6-5.8
						c0-2.6-1.6-4.3-4.1-4.3v-1.7c3.9,0,6.6,2.4,6.6,6c0,3.7-3.5,5.7-7.2,7.5c2.4,3.2,6,6.9,10.5,10.7c1.9-2.4,2.9-5.7,2.9-9.6h2.3
						c0,4.4-1.3,8.2-3.6,10.9c1.3,1.1,2.8,2.2,4.2,3.4L445.5,175.4z M439.6,170.5c-4.7-4-8.4-7.8-11-11.2c-3.5,1.8-6.6,3.7-6.6,7.3
						c0,4.2,3.7,7,9.3,7C434.6,173.6,437.4,172.5,439.6,170.5z"/>
					<path class="st0" d="M503.7,131.6c-0.9,0-2.1,2-2.9,4.8L490,174.8h-3.8l-10.8-38.3c-0.8-2.8-2-4.8-2.9-4.8l-3.5,43.1h-3.8
						l4-47.1h2c3.2,0,6.3,3.4,7.5,8.6l9.3,33.5h0.2l9.3-33.5c1.2-5.1,4.2-8.6,7.5-8.6h2l4,47.1h-3.8L503.7,131.6z"/>
					<path class="st0" d="M544.6,150.7v18.1c0,1.9,1.5,3.3,3.6,3.3v2.7c-3.1,0-5.4-1.3-6.5-3.5c-3.4,3-7,4.4-11.8,4.4
						c-6,0-12-3.1-12-9.7c0-7.4,7.3-11.5,16.7-11.6c1.9,0,4,0.2,6,0.7v-4.7c0-3.2-2.6-5.4-6.4-5.4c-3.3,0-7.2,0.6-10.5,1.7l-0.7-2.7
						c3.7-1.1,7.9-1.7,11.3-1.7C540.5,142.3,544.6,145.7,544.6,150.7z M522.5,165.9c0,4.4,3.9,7.1,7.8,7.1c3.7,0,7.5-1.3,10.4-4.4
						v-10.8c-2-0.4-4-0.7-6-0.8C527.6,157.1,522.5,160.6,522.5,165.9z"/>
					<path class="st0" d="M557.7,135.3v-8.6h4v8.6H557.7z M557.8,174.8v-31.5h3.7v31.5H557.8z"/>
					<path class="st0" d="M587.9,142.3c6.2,0,10.3,3.3,10.3,8.4v18.1c0,1.9,1.5,3.3,3.7,3.3v2.7c-3.1,0-5.4-1.3-6.5-3.5
						c-3.4,3-7,4.4-11.8,4.4c-6,0-12-3.1-12-9.7c0-7.4,7.3-11.5,16.7-11.6c1.9,0,4,0.2,6,0.7v-4.7c0-3.2-2.6-5.4-6.4-5.4
						c-3.3,0-7.2,0.6-10.5,1.7l-0.7-2.7C580.3,142.9,584.6,142.3,587.9,142.3L587.9,142.3z M576.1,165.9c0,4.4,3.9,7.1,7.8,7.1
						c3.7,0,7.5-1.3,10.4-4.4v-10.8c-2-0.4-4-0.7-6-0.8C581.2,157.1,576.1,160.6,576.1,165.9z"/>
				</g>
			</g>
		</g>
		<g>
			<path class="st0" d="M217.3,231l-3.9-10.9h-17.5l-3.5,10.9H191l10.4-31.9c0.9-2.8,2.4-4.3,4.1-4.3h0.5l12.8,36.2H217.3z
				 M205,196.2c-0.8,0-1.7,1.2-2.4,3.3l-6.4,19.4H213L205,196.2z"/>
			<path class="st0" d="M241.9,226.6c0,1.9,1.1,3.2,2.8,3.2v1.2c-1.6,0-2.7-0.6-3.3-1.4c-1.9,1.2-4.5,2.2-6.8,2.2
				c-4.9,0-11.1-3.2-11.1-12.6c0-7,4.2-12.5,11.4-12.5c1.8,0,3.7,0.4,5.6,1.3v-13.2h1.4V226.6z M225,219.1c0,7.2,4.3,11.4,9.6,11.4
				c2.2,0,4.5-1,6.2-2.2c-0.2-0.6-0.3-1.4-0.3-2.1v-16.8c-1.8-1-3.8-1.5-5.6-1.5C229.6,207.9,225,212,225,219.1z"/>
			<path class="st0" d="M261.5,230.3c-0.3,0.8-1.1,1.4-1.9,1.4s-1.7-0.6-2-1.4l-9.4-22.9h1.4l9.2,22.6c0.1,0.3,0.4,0.5,0.8,0.5
				c0.3,0,0.6-0.2,0.7-0.5l8.1-22.6h1.4L261.5,230.3z"/>
			<path class="st0" d="M296.8,219.1c0,7.6-4.6,12.6-11.6,12.6c-6.9,0-11.6-5-11.6-12.6c0-7.4,4.6-12.5,11.6-12.5
				C292.1,206.7,296.8,211.7,296.8,219.1z M275,219.1c0,6.8,4.1,11.3,10.2,11.3c6.1,0,10.1-4.5,10.1-11.3c0-6.6-4.1-11.1-10.1-11.1
				C279.1,208,275,212.5,275,219.1z"/>
			<path class="st0" d="M322.6,209.2c0.4-1.1,1.8-1.8,3.7-1.8v1.3c-1.6,0-2.8,1-2.8,2.6v21.6c0,6.8-6.4,10.2-13.4,10.2
				c-1.3,0-2.6-0.1-3.7-0.3l0.2-1.3c1.3,0.2,2.5,0.3,3.6,0.3c6.6,0,11.8-3.4,11.8-8.9v-3.2c-2.8,0.9-5.9,1.3-8.6,1.3
				c-6.7,0-10.9-5.1-10.9-12.4c0-8.9,6.9-11.9,12.2-11.9C317.9,206.7,321,207.7,322.6,209.2z M304,218.5c0,6.7,3.6,11.1,9.4,11.1
				c2.6,0,5.9-0.4,8.6-1.3V212c0-2.4-3-4.1-7.6-4.1C310,207.9,304,210.8,304,218.5z"/>
			<path class="st0" d="M350.1,212.3v15.1c0,1.4,1.1,2.4,2.8,2.4v1.2c-1.9,0-3.2-0.9-3.9-2.5c-2.7,2.3-5.1,3.2-8.8,3.2
				c-4,0-8.5-2-8.5-7c0-5.7,5.3-8.8,11.8-8.9c1.7,0,3.4,0.2,5.2,0.6v-4.2c0-2.6-2.1-4.3-5.3-4.3c-2.4,0-5.2,0.3-7.7,1.1l-0.3-1.3
				c2.7-0.8,5.6-1.1,7.8-1.1C347.4,206.7,350.1,208.9,350.1,212.3z M333.4,224.5c0,3.7,3.5,6,6.8,6c3,0,6.2-0.9,8.5-3.4v-9.5
				c-1.8-0.4-3.5-0.7-5.2-0.7C337.7,217,333.4,220,333.4,224.5z"/>
			<path class="st0" d="M376.7,226.6c0,1.9,1.1,3.2,2.8,3.2v1.2c-1.6,0-2.7-0.6-3.3-1.4c-1.9,1.2-4.5,2.2-6.8,2.2
				c-4.9,0-11.1-3.2-11.1-12.6c0-7,4.2-12.5,11.4-12.5c1.8,0,3.7,0.4,5.6,1.3v-13.2h1.4V226.6z M359.8,219.1
				c0,7.2,4.3,11.4,9.6,11.4c2.2,0,4.5-1,6.2-2.2c-0.2-0.6-0.3-1.4-0.3-2.1v-16.8c-1.8-1-3.8-1.5-5.6-1.5
				C364.4,207.9,359.8,212,359.8,219.1z"/>
			<path class="st0" d="M408.1,219.1c0,7.6-4.6,12.6-11.6,12.6c-6.9,0-11.6-5-11.6-12.6c0-7.4,4.6-12.5,11.6-12.5
				C403.5,206.7,408.1,211.7,408.1,219.1z M386.4,219.1c0,6.8,4.1,11.3,10.2,11.3c6.1,0,10.1-4.5,10.1-11.3
				c0-6.6-4.1-11.1-10.1-11.1C390.4,208,386.4,212.5,386.4,219.1z"/>
			<path class="st0" d="M430,210.2l-1,0.9c-2.2-2.1-4.6-3.2-6.9-3.2c-3.9,0-6.3,1.8-6.3,4.5c0,7,14.5,4.9,14.5,12.5
				c0,4.1-3.4,6.9-8.3,6.9c-3.3,0-6.8-1.6-9.1-4.6l1-0.8c2.2,2.9,5.3,4.2,8.3,4.2c4.1,0,6.7-2.3,6.7-5.7c0-6.4-14.5-4.2-14.5-12.5
				c0-3.4,3.1-5.7,7.7-5.7C424.8,206.7,427.7,208,430,210.2z"/>
		</g>
	</g>
	<g>
		<path class="st0" d="M259.2,80.4c0.4,1.2,1.6,1.8,2.7,1.5c0.7-0.2,1.4-1.5,1.4-1.5c1.7-10,17.7-25.7,24.2-30.6
			c-0.1,1-0.3,2.2-0.5,3.3c-0.2,1.5-0.4,3-0.6,4.2c-0.2,1.2,0.5,2.4,1.7,2.9c1.1,0.5,2.4,0.2,3.2-0.8c2.1-2.6,6-7.7,9.1-11.8
			c2.3-3,4.6-6.1,5-6.5c1.4-1.4,12.6-7,39.9-18.5l-4,11.7c-0.5,1.2-0.2,2.2,0.4,2.7c1.6,1.6,3.1,0.8,15.9-6.6
			c6.1-3.6,13.7-8,16.3-8.8c47.2-9.8,67.6,4.2,72.5,8.5c-11.6,13.7-32.6,26.8-59.3,36.9c-2.4,0.9-5.1,1.1-7.6,0.4
			c-6.8-1.8-18.7-5.8-25.1-8.2c-1.4-0.6-3,0-3.8,1.3c-0.8,1.3-0.6,2.9,0.6,4L370,77.9c-10.4,5-34.2,14.2-44.4,14.6
			c-3.8-1-10.4-4-15.7-6.4c-4-1.8-7.5-3.4-9.4-4c-1.1-0.3-2.3,0.1-2.9,1.1c-0.6,1-0.5,2.2,0.2,3.1c0.5,0.6,1.3,1.5,2.2,2.6
			c3.5,4.2,6.8,8.1,9.2,10.5c-6.9,2-28.8,4.9-38.3,0l-0.1-0.1c-0.2-0.1-0.4-0.1-0.6-0.1c-1.2,0-2.2,1-2.2,2.1c0,0.7,0.4,1.4,0.9,1.7
			l0.1,0c4.3,2.2,11.1,3,18.2,3c12.4,0,25.7-2.6,27.2-5.1c0.7-1.1,0.4-2.5-0.7-3.3c-1.6-1.2-5.4-5.6-8.4-9.1
			c0.9,0.4,1.9,0.8,2.8,1.3c5.9,2.7,12.6,5.7,16.7,6.7l0.3,0.1l0.3,0c11.7-0.4,38.4-11.2,47.1-15.4c0.5-0.3,2.1-1,2.4-2.7
			c0.2-1.7-1.1-3-1.7-3.5L360,65.6c6.2,2.1,13.5,4.5,18.4,5.8c3.4,0.9,6.9,0.7,10.2-0.5c16.4-6.2,46.4-19.6,62.3-39.7l1.1-1.3
			l-1.1-1.3c-0.8-1-20.1-23.2-78-11.1c-3.2,1-10.4,5.2-17.3,9.2c-3,1.7-6.4,3.7-8.9,5.1c0,0,3.1-8.7,3.3-10.2
			c0.1-0.6-0.2-2.6-1.7-3.4c-1.4-0.8-3-0.2-3.6,0.1l-0.5,0.2c-25.3,10.7-39.4,17.3-41.7,19.6c-0.4,0.4-1.8,2.2-5.3,6.9
			c-1.8,2.4-3.9,5.2-5.8,7.6c0.4-2.6,0.7-4.9,0.7-5.9c0.1-1.4-0.8-2.4-2.1-2.6c-4.5-0.5-28.5,22.4-30.8,35.6
			C259.1,79.7,259.1,80.2,259.2,80.4z"/>
		<path class="st0" d="M421.8,32.6c-17.8,1.9-35.4,6.2-52.5,11.5l-6.4,2c-2.1,0.7-4.2,1.5-6.4,2.2c-4.2,1.5-8.5,2.9-12.7,4.6
			c-4.2,1.7-8.4,3.3-12.5,5l-12.3,5.5c-2.1,0.9-4.1,1.9-6.1,3l-6,3.1l-6,3.1c-2,1-3.9,2.2-5.9,3.3c-3.9,2.2-7.8,4.4-11.8,6.6
			l-11.6,6.9l-5.9,3.4c-2,1.1-3.8,2.4-5.7,3.6c-3.8,2.4-7.6,4.8-11.5,7.1l-2.9,1.8l-2.8,1.9l-5.7,3.8c-3.8,2.5-7.6,5-11.5,7.3
			l-0.4-0.5c3.4-3.1,6.8-6.2,10.3-9.2l5.2-4.5c0.9-0.8,1.7-1.5,2.6-2.2l2.7-2.1c7.4-5.5,14.6-11.1,22.5-15.9
			c3.9-2.4,7.7-4.9,11.7-7.2c4-2.2,8.1-4.3,12.1-6.4c2-1,4-2.1,6.1-3.1l6.2-2.8l6.2-2.8c2.1-0.9,4.1-1.9,6.2-2.7l12.6-5.1
			c4.2-1.7,8.5-3.1,12.8-4.6c4.2-1.6,8.6-2.8,12.9-4.2c2.2-0.7,4.3-1.4,6.5-2l6.6-1.8c17.5-4.5,35.3-8.1,53.3-9L421.8,32.6z"/>
	</g>
</g>
</svg>
