<svg id="startse-texto-branco" xmlns="http://www.w3.org/2000/svg" viewBox="0 0 270 50" width="100">
    <style>
        .startse-branco {
            fill: #ffffff;
        }
        .startse-azul-claro {
            fill: #00ABEB;
        }
        .startse-azul-escuro {
            fill: #13496F;
        }
    </style>
    <title>StartSe Logo</title>
    <path class="startse-azul-claro" d="M245.5 22.6c-2 0-3.6 1.6-3.6 3.6s1.6 3.6 3.6 3.6 3.6-1.6 3.6-3.6-1.6-3.6-3.6-3.6zm9.7 0c-2 0-3.6 1.6-3.6 3.6s1.6 3.6 3.6 3.6 3.6-1.6 3.6-3.6-1.6-3.6-3.6-3.6zm-29.1 0c-2 0-3.6 1.6-3.6 3.6s1.6 3.6 3.6 3.6 3.6-1.6 3.6-3.6-1.6-3.6-3.6-3.6zm9.7 0c-2 0-3.6 1.6-3.6 3.6s1.6 3.6 3.6 3.6 3.6-1.6 3.6-3.6-1.6-3.6-3.6-3.6zm0-9.6c-2 0-3.6 1.6-3.6 3.6s1.6 3.6 3.6 3.6 3.6-1.6 3.6-3.6c.1-2-1.6-3.6-3.6-3.6zm29.1 9.6c-2 0-3.6 1.6-3.6 3.6s1.6 3.6 3.6 3.6 3.6-1.6 3.6-3.6-1.6-3.6-3.6-3.6zM245.5 13c-2 0-3.6 1.6-3.6 3.6s1.6 3.6 3.6 3.6 3.6-1.6 3.6-3.6c.1-2-1.6-3.6-3.6-3.6zm9.7 0c-2 0-3.6 1.6-3.6 3.6s1.6 3.6 3.6 3.6 3.6-1.6 3.6-3.6c.1-2-1.6-3.6-3.6-3.6zm-29.1 0c-2 0-3.6 1.6-3.6 3.6s1.6 3.6 3.6 3.6 3.6-1.6 3.6-3.6c.1-2-1.6-3.6-3.6-3.6zm9.7-9.7c-2 0-3.6 1.6-3.6 3.6s1.6 3.6 3.6 3.6 3.6-1.6 3.6-3.6c.1-2-1.6-3.6-3.6-3.6zm9.7 0c-2 0-3.6 1.6-3.6 3.6s1.6 3.6 3.6 3.6 3.6-1.6 3.6-3.6c.1-2-1.6-3.6-3.6-3.6zm-19.4 0c-2 0-3.6 1.6-3.6 3.6s1.6 3.6 3.6 3.6 3.6-1.6 3.6-3.6c.1-2-1.6-3.6-3.6-3.6zm9.7 29c-2 0-3.6 1.6-3.6 3.6s1.6 3.6 3.6 3.6 3.6-1.6 3.6-3.6c.1-1.9-1.6-3.6-3.6-3.6zm9.7 0c-2 0-3.6 1.6-3.6 3.6s1.6 3.6 3.6 3.6 3.6-1.6 3.6-3.6c.1-1.9-1.6-3.6-3.6-3.6zm9.7 0c-2 0-3.6 1.6-3.6 3.6s1.6 3.6 3.6 3.6 3.6-1.6 3.6-3.6c.1-1.9-1.6-3.6-3.6-3.6zm-29.1 0c-2 0-3.6 1.6-3.6 3.6s1.6 3.6 3.6 3.6 3.6-1.6 3.6-3.6c.1-1.9-1.6-3.6-3.6-3.6zm9.7 9.7c-2 0-3.6 1.6-3.6 3.6s1.6 3.6 3.6 3.6 3.6-1.6 3.6-3.6c.1-1.9-1.6-3.6-3.6-3.6zm9.7 0c-2 0-3.6 1.6-3.6 3.6s1.6 3.6 3.6 3.6 3.6-1.6 3.6-3.6c.1-1.9-1.6-3.6-3.6-3.6zm-19.4 0c-2 0-3.6 1.6-3.6 3.6s1.6 3.6 3.6 3.6 3.6-1.6 3.6-3.6c.1-1.9-1.6-3.6-3.6-3.6z"/>
    <path class="startse-branco" d="M32.3 34.7c0 3-.7 5.6-2.1 7.9-1.4 2.3-3.4 4.1-6.1 5.4-2.7 1.3-5.8 1.9-9.3 1.9-3 0-5.5-.2-7.5-.7-2-.5-4.1-1.2-6.3-2.4V35.4c2.3 1.3 4.7 2.3 7.2 3 2.5.7 4.8 1.1 6.9 1.1 1.8 0 3.1-.3 4-1 .8-.7 1.3-1.5 1.3-2.6 0-.7-.2-1.2-.5-1.7s-.9-1-1.6-1.5c-.7-.5-2.7-1.5-6-3.1-2.9-1.4-5.1-2.8-6.6-4.1s-2.7-3-3.4-4.7c-.7-1.7-1.1-3.8-1.1-6.1 0-4.4 1.5-7.9 4.5-10.4S12.8.6 18.1.6c4.6 0 9.4 1.2 14.2 3.5l-3.7 10C24.4 12 20.8 11 17.8 11c-1.6 0-2.7.3-3.4.9s-1.1 1.3-1.1 2.2c0 .9.5 1.8 1.4 2.5.9.7 3.4 2.1 7.4 4.1 3.9 1.9 6.5 3.9 8 6s2.2 4.8 2.2 8zM52.4 39.8c1.6 0 3.5-.4 5.8-1.3v9.4c-1.6.7-3.1 1.3-4.6 1.6-1.5.3-3.2.5-5.1.5-4 0-6.9-1.1-8.7-3.2-1.8-2.1-2.7-5.4-2.7-9.7V21.7h-4.2v-5.2l5.3-4 3.1-7.8h7.8v7.5h8.5v9.6h-8.5v14.5c.1 2.3 1.1 3.5 3.3 3.5zM83.7 49.3l-2.3-4.9h-.2c-1.6 2.1-3.3 3.6-4.9 4.4-1.7.8-3.8 1.2-6.5 1.2-3.3 0-5.8-1.1-7.7-3.2-1.9-2.1-2.8-5.1-2.8-8.9 0-4 1.3-6.9 3.9-8.9 2.6-1.9 6.3-3 11.2-3.3l5.8-.2V25c0-3.1-1.4-4.6-4.2-4.6-2.5 0-5.7.9-9.6 2.8l-3.5-8.5c4-2.2 9.1-3.4 15.3-3.4 4.5 0 7.9 1.2 10.3 3.6 2.4 2.4 3.7 5.7 3.7 9.9v24.4h-8.5zm-8.8-8.4c1.4 0 2.7-.5 3.7-1.5s1.5-2.3 1.5-3.8v-2.9l-2.8.1c-3.9.2-5.9 1.7-5.9 4.7.1 2.3 1.2 3.4 3.5 3.4zM118 11.4c1 0 2 .1 3 .3l.7.1-1.1 12.2c-1-.3-2.3-.4-4.1-.4-2.6 0-4.5.6-5.7 1.9-1.2 1.3-1.8 3.1-1.8 5.5v18.3H97V12.1h8.9l1.9 5.9h.6c1-2 2.4-3.6 4.2-4.8 1.8-1.2 3.6-1.8 5.4-1.8z"/>
    <path class="startse-branco" d="M140.3 39.8c1.6 0 3.5-.4 5.8-1.3v9.4c-1.6.7-3.1 1.3-4.6 1.6-1.5.3-3.2.5-5.1.5-4 0-6.9-1.1-8.7-3.2-1.8-2.1-2.7-5.4-2.7-9.7V21.7h-4.2v-5.2l5.3-4 3.1-7.8h7.8v7.5h8.5v9.6H137v14.5c.1 2.3 1.2 3.5 3.3 3.5zM179 34.7c0 3-.7 5.6-2.1 7.9-1.4 2.3-3.4 4.1-6.1 5.4-2.7 1.3-5.8 1.9-9.3 1.9-3 0-5.5-.2-7.5-.7-2-.5-4.1-1.2-6.3-2.4V35.4c2.3 1.3 4.7 2.3 7.2 3 2.5.7 4.8 1.1 6.9 1.1 1.8 0 3.1-.3 3.9-1 .8-.7 1.3-1.5 1.3-2.6 0-.7-.2-1.2-.5-1.7s-.9-1-1.6-1.5c-.7-.5-2.7-1.5-6-3.1-2.9-1.4-5.1-2.8-6.6-4.1-1.5-1.3-2.5-2.9-3.2-4.6-.7-1.7-1.1-3.8-1.1-6.1 0-4.4 1.5-7.9 4.5-10.4S159.6.7 164.9.7c4.6 0 9.4 1.2 14.2 3.5l-3.7 10c-4.2-2.1-7.8-3.1-10.8-3.1-1.6 0-2.7.3-3.4.9-.7.6-1.1 1.3-1.1 2.2 0 .9.5 1.8 1.4 2.5.9.7 3.4 2.1 7.4 4.1 3.9 1.9 6.5 3.9 8 6 1.4 2 2.1 4.7 2.1 7.9zM198.9 50c-5.8 0-10.3-1.6-13.5-4.9-3.2-3.3-4.8-8-4.8-14.1 0-6.3 1.5-11.1 4.4-14.5 3-3.4 7.2-5 12.7-5 5.2 0 9.3 1.5 12.1 4.4 2.8 2.9 4.3 7.1 4.3 12.6v5.7h-21.4c.1 2.1.8 3.7 2.1 4.9 1.3 1.2 3.2 1.8 5.5 1.8 2.1 0 4-.2 5.8-.6 1.8-.4 3.7-1.2 5.7-2.2v9.2c-1.9 1-3.8 1.7-5.8 2.1-2 .4-4.4.6-7.1.6zm-.7-29.8c-1.4 0-2.6.5-3.5 1.4-1 1-1.5 2.5-1.7 4.5h10.3c0-1.8-.5-3.2-1.4-4.3-1-1.1-2.2-1.6-3.7-1.6z"/>
</svg>