<svg xmlns="http://www.w3.org/2000/svg" width="366.262" height="70.493" viewBox="0 0 366.262 70.493"><defs><style>.a{fill:#fff;fill-rule:evenodd;}</style></defs><g transform="translate(-400.629 -349.24)"><path class="a" d="M685.036,365.9l-5.763,29.5a43.711,43.711,0,0,0-.821,7.694c0,11.62,7,17.793,19.444,17.709,16.562,0,23.566-8.412,26.783-24.843l5.847-30.056H716.436l-6.015,30.774c-1.725,9.139-5.194,12.739-10.873,12.739-4.858,0-7-3.283-7.087-6.575a32.564,32.564,0,0,1,.578-6.248l6.015-30.69ZM646.307,409.41c-6.919,0-10.221-4.644-10.221-11.7,0-6.09,2.3-13.942,6.258-17.868a11.634,11.634,0,0,1,8.244-3.441c7.255,0,9.727,5.372,9.727,11.7,0,5.689-2.145,14.11-6.183,18.026a11.289,11.289,0,0,1-7.75,3.282h-.075ZM644.331,420.8c8.57,0,15.825-2.882,21.178-7.852,6.267-5.931,9.811-15.229,9.811-25.16,0-13.541-8.486-22.764-23.071-22.764a30.336,30.336,0,0,0-21.011,7.852c-6.425,6.015-10.137,15.3-10.137,25.16,0,13.065,8.738,22.754,23.155,22.754h.075Zm-42.608-.886H587.631l4.29-21.794L580.963,365.9h15.08l2.723,12.1c.9,4.411,1.483,7.05,2.061,10.1h.168c1.809-3.208,3.376-6.174,5.521-10.1l6.836-12.1h16.814l-24.144,31.819-4.3,22.195Zm-31.39,0,2.229-11.62h-17.8v-.159l5.688-3.842c7.908-5.614,15.984-12.021,15.984-22.437,0-8.9-6.761-14.912-17.886-14.912a38.2,38.2,0,0,0-17.635,4.411l2.639,9.857a22.42,22.42,0,0,1,11.536-2.807c4.122,0,6.92,2,6.92,5.614,0,5.288-6.183,10.5-15.331,17.551l-13.1,9.615-1.651,8.738h38.412Z" transform="translate(-8.855 -1.064)"/><path class="a" d="M495.881,369.263a22.611,22.611,0,0,1,6.677-.718c7.414,0,12.692,3.049,12.692,10.342,0,8.971-7.246,15.387-18.045,15.387a28.661,28.661,0,0,1-6.1-.56l4.775-24.452Zm-13.6,50.647H486l4.532-23a30.775,30.775,0,0,0,6.1.485c5.931,0,12.114-1.679,16.32-5.288a18.5,18.5,0,0,0,6.1-13.382,13.043,13.043,0,0,0-2.8-8.738c-2.555-2.965-7.339-4.486-12.935-4.486a50.082,50.082,0,0,0-10.547,1.045L482.285,419.91Zm-28.844-2.238c-12.524,0-16.814-9.615-16.814-19.155,0-8.179,3.46-18.353,9.316-24.125a20.9,20.9,0,0,1,14.669-6.248c14.259,0,16.9,10.818,16.9,19,0,8.337-3.376,18.6-9.148,24.2a21.263,21.263,0,0,1-14.837,6.332Zm-.41,3.124a25.167,25.167,0,0,0,18.045-7.367c6.761-6.649,10.3-17.392,10.3-26.531,0-10.734-5.026-21.878-20.19-21.878a26.517,26.517,0,0,0-17.635,7.05c-6.836,6.649-10.8,17.709-10.8,27.091,0,10.818,5.847,21.635,20.19,21.635Zm-45.154-.886h3.711l9.969-50.89H438.7l.662-3.124H401.292l-.662,3.124h17.224Z" transform="translate(-0.001 -1.064)"/><path class="a" d="M763.534,379.613c-1.921.019-14.389.42-19.434,7.209l1.716-7.787h.019l1.986-8.869h0l2.844-13.96a9.052,9.052,0,0,1,8.551-6.966h24.536a6.862,6.862,0,0,1,1.38.14,5.942,5.942,0,0,1,4.924,5.95,6.868,6.868,0,0,1-.149,1.417l-3.245,15.9a9.073,9.073,0,0,1-8.561,6.966H763.534Zm-14.79.075a38.154,38.154,0,0,1,14.79-3.021H778.1a5.754,5.754,0,0,0,3.544-1.362,5.828,5.828,0,0,0,2.061-3.245l3.245-15.9a4.2,4.2,0,0,0,.084-.839,3.134,3.134,0,0,0-.69-2.024,3.06,3.06,0,0,0-1.819-1.044,4.591,4.591,0,0,0-.8-.084H759.189a5.754,5.754,0,0,0-3.544,1.362,5.837,5.837,0,0,0-2.061,3.236l-2.863,14.007Z" transform="translate(-23.165)"/></g></svg>